<svg xmlns="http://www.w3.org/2000/svg" viewBox="0 0 100 100">
  <defs>
    <linearGradient id="g" x1="0%" y1="0%" x2="100%" y2="100%">
      <stop offset="0%" style="stop-color:#00F5FF;stop-opacity:1" />
      <stop offset="100%" style="stop-color:#7B2CBF;stop-opacity:1" />
    </linearGradient>
  </defs>
  <circle cx="50" cy="50" r="45" fill="url(#g)" opacity="0.9" />
  <circle cx="50" cy="50" r="25" fill="#050811" />
  <circle cx="50" cy="50" r="12" fill="#00F5FF" />
  <path d="M30,30 A20,20 0 1,1 70,30 A20,20 0 0,1 30,30" fill="none" stroke="#00F5FF" stroke-width="2" />
  <path d="M35,35 A15,15 0 1,1 65,35 A15,15 0 0,1 35,35" fill="none" stroke="#00F5FF" stroke-width="2" stroke-dasharray="4" />
  <path d="M40,40 A10,10 0 1,1 60,40 A10,10 0 0,1 40,40" fill="none" stroke="#00F5FF" stroke-width="2" stroke-dasharray="2" />
</svg>